<?xml version="1.0" encoding="UTF-8"?>
<svg version="1.1" xmlns="http://www.w3.org/2000/svg" width="512" height="512">
<path d="M0 0 C1.85476558 -0.00576172 1.85476558 -0.00576172 3.74700117 -0.01163983 C5.11622339 -0.01085965 6.48544556 -0.00998088 7.85466766 -0.00901413 C9.3114748 -0.01159857 10.76828124 -0.01461195 12.22508669 -0.01801753 C16.228896 -0.02608107 20.23268737 -0.02787674 24.23650384 -0.028615 C28.55421189 -0.03046659 32.87191066 -0.0380143 37.18961334 -0.04475021 C46.62943329 -0.05832784 56.06924899 -0.06435691 65.50907707 -0.06876087 C71.40129817 -0.07152335 77.29351762 -0.07576062 83.18573761 -0.08026505 C99.49510597 -0.09245524 115.80447301 -0.10275617 132.11384583 -0.10614014 C133.15747918 -0.1063597 134.20111254 -0.10657927 135.27637115 -0.10680549 C136.32250999 -0.10702377 137.36864884 -0.10724204 138.44648886 -0.10746694 C140.56639449 -0.1079104 142.68630012 -0.10835697 144.80620575 -0.10880661 C146.38352768 -0.10913875 146.38352768 -0.10913875 147.9927147 -0.10947761 C165.04450224 -0.11342852 182.09624713 -0.13089259 199.14801818 -0.15416613 C216.64870437 -0.17786001 234.14936913 -0.19034103 251.65007162 -0.19150805 C261.47867501 -0.19242574 271.30722276 -0.19820179 281.13581085 -0.21632767 C289.5018247 -0.23170192 297.86776571 -0.23686485 306.23379099 -0.22858956 C310.50376192 -0.22467401 314.77358604 -0.22565671 319.04353905 -0.23964691 C322.95054693 -0.25233126 326.85729686 -0.25123682 330.7643041 -0.2390562 C332.1794453 -0.23708971 333.59460444 -0.2402213 335.00972039 -0.24890056 C336.93031432 -0.25993654 338.85099282 -0.25074465 340.77159119 -0.24050903 C341.83931243 -0.24110612 342.90703368 -0.24170321 344.00711012 -0.24231839 C348.60576407 0.35473511 351.13621837 2.28722304 354.16823196 5.70200157 C356.46031977 10.27856911 356.43073458 13.95368168 356.36681366 19.00224686 C356.37023136 19.99150952 356.37364906 20.98077219 356.37717032 22.00001252 C356.38375468 25.31217953 356.36176321 28.62353473 356.33989716 31.93562698 C356.3387688 34.31086584 356.3394023 36.6861061 356.34166718 39.06134415 C356.34269648 44.83987336 356.32535779 50.618137 356.29991654 56.39660554 C356.27129844 63.12178191 356.26533381 69.84692078 356.26076385 76.57214953 C356.25201472 88.56494676 356.22540956 100.557635 356.18755341 112.55037308 C356.15082341 124.19847952 356.1225165 135.84655633 356.10552216 147.49470901 C356.10447126 148.21299861 356.10342037 148.9312882 356.10233763 149.67134415 C356.09711738 153.27488133 356.09206258 156.87841871 356.08709002 160.48195624 C356.04563987 190.36518977 355.97490403 220.24829601 355.88579559 250.13142776 C357.12426805 249.9921851 358.36274052 249.85294243 359.63874245 249.70948029 C361.27839116 249.52597509 362.91804428 249.3425093 364.55770111 249.15907669 C365.37223157 249.06739275 366.18676203 248.97570881 367.02597523 248.88124657 C372.4502218 248.27545522 377.86596665 247.74702198 383.31548309 247.42830276 C384.46646988 247.35884445 384.46646988 247.35884445 385.64070892 247.28798294 C387.22452884 247.19472797 388.80850527 247.10409108 390.39263153 247.01619339 C392.7819616 246.88022327 395.16955513 246.72463211 397.55767059 246.56892776 C409.22765834 245.86850277 420.44982056 245.38845254 430.38579559 252.44392776 C430.96587372 252.82226761 431.54595184 253.20060745 432.14360809 253.59041214 C435.72970445 256.00979907 438.44505543 258.56005062 440.88579559 262.13142776 C440.88579559 262.79142776 440.88579559 263.45142776 440.88579559 264.13142776 C441.54579559 264.13142776 442.20579559 264.13142776 442.88579559 264.13142776 C447.18396597 271.33265364 448.72533684 277.03268821 448.57329559 285.38142776 C448.56330536 286.54343704 448.55331512 287.70544632 448.54302216 288.902668 C448.0643499 307.96543528 445.29192853 326.94791456 443.05901337 345.86398697 C441.75280971 357.04149361 440.69840178 368.2355624 439.69829559 379.44392776 C434.24873298 439.60261013 434.24873298 439.60261013 419.51079559 453.56892776 C415.31579479 457.05762742 411.04400584 459.3890223 405.88579559 461.13142776 C404.89071991 461.47367386 403.89564423 461.81591995 402.87041473 462.16853714 C398.19802401 463.48782088 393.61867575 463.38178285 388.79595184 463.32674026 C387.37916389 463.32249542 387.37916389 463.32249542 385.93375397 463.31816483 C382.93846835 463.3070346 379.94348973 463.28194336 376.94829559 463.25642776 C374.90858639 463.24638871 372.86887247 463.23726448 370.82915497 463.22908401 C365.84791819 463.20711872 360.86690882 463.17263853 355.88579559 463.13142776 C355.90674286 463.88762405 355.92769012 464.64382034 355.94927216 465.42293167 C356.03270144 468.86729376 356.08454183 472.31144284 356.13579559 475.75642776 C356.16931122 476.94623245 356.20282684 478.13603714 356.23735809 479.36189651 C356.3598382 490.32386562 356.3598382 490.32386562 351.88579559 495.13142776 C347.82177574 498.71163573 345.53495676 500.25625729 340.15691376 500.25600052 C339.15891754 500.25856354 338.16092133 500.26112656 337.1326828 500.26376724 C336.03349518 500.26166748 334.93430756 500.25956772 333.80181122 500.25740433 C332.06982483 500.26020653 332.06982483 500.26020653 330.30284882 500.26306534 C327.78739394 500.26707761 325.2719354 500.26914493 322.75647736 500.26952744 C318.77134289 500.27206595 314.78630006 500.28351185 310.80120087 500.29909134 C310.12825564 500.30166419 309.45531041 500.30423705 308.7619729 500.30688787 C307.38552595 500.31215485 306.00907907 500.31744033 304.63263226 500.32274389 C295.35502702 500.35781415 286.07753512 500.38441348 276.79985809 500.38191605 C270.54286509 500.38032228 264.28618677 500.39648772 258.02929449 500.43262267 C254.72115991 500.45100858 251.41366449 500.45773207 248.10547638 500.44814682 C244.40481091 500.43849823 240.70548128 500.45976327 237.00493622 500.48787308 C235.92194244 500.47767639 234.83894867 500.46747971 233.7231369 500.45697403 C228.44336774 500.52858628 224.79819657 500.91961834 220.2220993 503.63121414 C213.12605637 507.5709041 205.26872485 506.82963564 197.38579559 506.77840042 C195.62716011 506.78518544 193.86853174 506.79409352 192.10991669 506.80495071 C187.35774389 506.82764558 182.60611695 506.81894847 177.85393524 506.80305529 C172.8671452 506.79034525 167.88040009 506.80215053 162.89360809 506.80998611 C154.52112742 506.81906785 146.14886768 506.80713355 137.77642059 506.78328323 C128.11391746 506.75607483 118.45194195 506.76489004 108.7894516 506.79241526 C100.47489169 506.81514744 92.16049008 506.81828635 83.84590912 506.80522192 C78.88808806 506.79744997 73.93051454 506.79632349 68.97270966 506.81290436 C64.31028957 506.82740978 59.64854589 506.8172171 54.98619843 506.78843307 C53.281091 506.78185457 51.57592608 506.78366418 49.87084198 506.7947464 C41.46346488 506.84432816 34.2354023 506.8668537 26.85202408 502.26063061 C23.53026514 500.35294813 20.7734786 500.53607423 16.96392059 500.56502151 C16.25660797 500.5593869 15.54929535 500.55375229 14.82054901 500.54794693 C12.59159503 500.53172413 10.36467371 500.5468043 8.13579559 500.56892776 C-11.8983872 500.7211699 -28.94163944 496.73390515 -43.90326691 482.37752151 C-44.63287628 481.63631058 -45.36248566 480.89509964 -46.11420441 480.13142776 C-46.76131378 479.48302933 -47.40842316 478.83463089 -48.07514191 478.16658401 C-57.96471927 467.60762478 -64.23017791 452.97703172 -64.24563217 438.50578594 C-64.24768481 437.85021126 -64.24973744 437.19463658 -64.25185227 436.519196 C-64.25751362 434.31907444 -64.25606609 432.11901565 -64.2546463 429.91888809 C-64.25723044 428.32682666 -64.26024374 426.73476587 -64.2636497 425.14270598 C-64.27171737 420.76475777 -64.27350915 416.38682596 -64.27424717 412.0088712 C-64.27609816 407.28816292 -64.28364579 402.56746315 -64.29038239 397.8467598 C-64.30396515 387.52220042 -64.3099905 377.19764493 -64.31439304 366.87307811 C-64.31715588 360.42534029 -64.32139334 353.97760398 -64.32589722 347.52986717 C-64.33809041 329.67555046 -64.34838923 311.82123496 -64.35177231 293.96691418 C-64.35199187 292.82414297 -64.35221144 291.68137177 -64.35243766 290.50397113 C-64.35265594 289.35847227 -64.35287422 288.21297341 -64.35309911 287.03276247 C-64.35354257 284.71156561 -64.35398914 282.39036876 -64.35443878 280.06917191 C-64.35466021 278.91777922 -64.35488164 277.76638654 -64.35510978 276.58010317 C-64.35905659 257.92934767 -64.37650681 239.27863127 -64.3997983 220.62789088 C-64.42352213 201.47622292 -64.43597465 182.32457457 -64.43714023 163.17289168 C-64.43805647 152.42130089 -64.44379595 141.66976103 -64.46195984 130.91818428 C-64.4773748 121.76149384 -64.48247308 112.60487006 -64.47422174 103.4481691 C-64.47032003 98.77835802 -64.47122137 94.10868114 -64.48527908 89.43888664 C-64.49804681 85.15835173 -64.49679536 80.87805145 -64.48468837 76.59751672 C-64.48273633 75.05439199 -64.48578691 73.51125048 -64.49453273 71.9681493 C-64.59374238 53.2699985 -59.7398162 37.24240565 -47.11420441 23.13142776 C-46.45936066 22.38377151 -45.80451691 21.63611526 -45.12982941 20.86580276 C-33.69510571 8.5964277 -16.96579278 0.0198065 0 0 Z " fill="#86B918" transform="translate(64.11420440673828,5.868572235107422)"/>
<path d="M0 0 C0.57105469 0.37833984 1.14210938 0.75667969 1.73046875 1.14648438 C5.26200834 3.56776036 7.95238886 6.15994183 10.375 9.6875 C10.375 10.3475 10.375 11.0075 10.375 11.6875 C11.035 11.6875 11.695 11.6875 12.375 11.6875 C16.67317038 18.88872588 18.21454125 24.58876045 18.0625 32.9375 C18.05250977 34.09950928 18.04251953 35.26151855 18.03222656 36.45874023 C17.5535543 55.52150752 14.78113293 74.5039868 12.54821777 93.4200592 C11.24201412 104.59756585 10.18760618 115.79163463 9.1875 127 C3.73793739 187.15868237 3.73793739 187.15868237 -11 201.125 C-15.19500081 204.61369965 -19.46678975 206.94509453 -24.625 208.6875 C-25.62007568 209.02974609 -26.61515137 209.37199219 -27.64038086 209.72460938 C-32.31277159 211.04389311 -36.89211985 210.93785509 -41.71484375 210.8828125 C-43.1316317 210.87856766 -43.1316317 210.87856766 -44.57704163 210.87423706 C-47.57232724 210.86310684 -50.56730586 210.8380156 -53.5625 210.8125 C-55.6022092 210.80246095 -57.64192312 210.79333672 -59.68164062 210.78515625 C-64.6628774 210.76319096 -69.64388678 210.72871076 -74.625 210.6875 C-74.60405273 211.44369629 -74.58310547 212.19989258 -74.56152344 212.97900391 C-74.47809415 216.423366 -74.42625376 219.86751507 -74.375 223.3125 C-74.34148437 224.50230469 -74.30796875 225.69210937 -74.2734375 226.91796875 C-74.1509574 237.87993786 -74.1509574 237.87993786 -78.625 242.6875 C-82.68901985 246.26770796 -84.97583883 247.81232953 -90.35388184 247.81207275 C-91.85087616 247.81591728 -91.85087616 247.81591728 -93.37811279 247.81983948 C-94.47730042 247.81773972 -95.57648804 247.81563995 -96.70898438 247.81347656 C-98.44097076 247.81627876 -98.44097076 247.81627876 -100.20794678 247.81913757 C-102.72340165 247.82314985 -105.23886019 247.82521717 -107.75431824 247.82559967 C-111.7394527 247.82813819 -115.72449553 247.83958409 -119.70959473 247.85516357 C-120.38253995 247.85773643 -121.05548518 247.86030928 -121.74882269 247.8629601 C-123.12526964 247.86822709 -124.50171652 247.87351257 -125.87816334 247.87881613 C-135.15576857 247.91388638 -144.43326048 247.94048572 -153.7109375 247.93798828 C-159.96793051 247.93639451 -166.22460883 247.95255996 -172.4815011 247.98869491 C-175.78963568 248.00708082 -179.0971311 248.01380431 -182.40531921 248.00421906 C-186.10598469 247.99457046 -189.80531431 248.01583551 -193.50585938 248.04394531 C-194.58885315 248.03374863 -195.67184692 248.02355194 -196.78765869 248.01304626 C-202.06742785 248.08465852 -205.71259903 248.47569057 -210.28869629 251.18728638 C-217.38473922 255.12697633 -225.24207074 254.38570787 -233.125 254.33447266 C-234.88363548 254.34125767 -236.64226385 254.35016575 -238.40087891 254.36102295 C-243.1530517 254.38371782 -247.90467864 254.37502071 -252.65686035 254.35912752 C-257.64365039 254.34641748 -262.63039551 254.35822277 -267.6171875 254.36605835 C-275.98966818 254.37514008 -284.36192791 254.36320579 -292.734375 254.33935547 C-302.39687813 254.31214707 -312.05885364 254.32096227 -321.72134399 254.3484875 C-330.0359039 254.37121967 -338.35030551 254.37435858 -346.66488647 254.36129415 C-351.62270753 254.35352221 -356.58028105 254.35239572 -361.53808594 254.36897659 C-366.20050603 254.38348202 -370.86224971 254.37328934 -375.52459717 254.34450531 C-377.22970459 254.33792681 -378.93486951 254.33973641 -380.63995361 254.35081863 C-391.40453772 254.41430182 -399.75119319 253.6051057 -408.3125 246.4375 C-409.075625 245.53 -409.83875 244.6225 -410.625 243.6875 C-411.17800781 243.03910156 -411.73101562 242.39070312 -412.30078125 241.72265625 C-422.23107174 229.62343722 -424.27854511 217.67454865 -426.02734375 202.50390625 C-426.14953278 201.46330048 -426.2717218 200.4226947 -426.39761353 199.35055542 C-426.79060314 195.98422867 -427.17715025 192.61720932 -427.5625 189.25 C-427.6963913 188.09001495 -427.83028259 186.93002991 -427.9682312 185.7348938 C-429.68165837 170.84759914 -431.21861479 155.96907869 -432.3458252 141.02615356 C-433.45632835 126.36354884 -435.16970573 111.78592768 -437.00024414 97.19702148 C-439.17547533 79.6135889 -440.11254627 66.99733745 -428.90234375 52.23828125 C-423.56876575 46.26430795 -415.71095303 40.5429582 -407.60327148 39.40332031 C-405.18565349 39.27668962 -402.795782 39.2740997 -400.375 39.3125 C-398.92250854 39.32555176 -398.92250854 39.32555176 -397.44067383 39.33886719 C-371.63863168 39.81190786 -345.83206973 42.38753643 -320.16937256 44.94464111 C-304.20021874 46.5306716 -288.21926431 47.6600135 -272.20483398 48.67700195 C-270.36832109 48.79369234 -268.53181379 48.9104709 -266.6953125 49.02734375 C-265.81647903 49.08322159 -264.93764557 49.13909943 -264.03218079 49.19667053 C-253.88085812 49.85078637 -243.75049675 50.71279193 -233.625 51.6875 C-233.66109375 50.66785156 -233.6971875 49.64820313 -233.734375 48.59765625 C-233.50659406 40.45448748 -230.75455105 32.06057857 -225.625 25.6875 C-224.903125 24.6975 -224.18125 23.7075 -223.4375 22.6875 C-215.70278478 13.73766335 -202.59653818 8.40027572 -190.98535156 7.36206055 C-189.49567221 7.26261359 -188.0057382 7.16693838 -186.515625 7.07421875 C-184.81778485 6.96158041 -183.11994981 6.84886505 -181.42211914 6.73608398 C-180.52042999 6.67750214 -179.61874084 6.61892029 -178.68972778 6.55856323 C-160.31609046 5.36032151 -141.96821841 3.92764256 -123.62240601 2.3637085 C-103.73321363 0.66860346 -103.73321363 0.66860346 -94.40625 0.0234375 C-93.72702988 -0.02354782 -93.04780975 -0.07053314 -92.3480072 -0.11894226 C-89.30745288 -0.32694187 -86.26654655 -0.52638565 -83.22485352 -0.71704102 C-82.21350342 -0.78334717 -81.20215332 -0.84965332 -80.16015625 -0.91796875 C-79.297854 -0.97106201 -78.43555176 -1.02415527 -77.54711914 -1.07885742 C-75.61921127 -1.11275008 -75.61921127 -1.11275008 -74.625 -2.3125 C-63.60094452 -4.13960669 -52.33536239 -4.7025704 -41.19329834 -5.41262817 C-39.66714548 -5.5112899 -38.1412838 -5.61458265 -36.61578369 -5.72286987 C-10.32686489 -7.56386593 -10.32686489 -7.56386593 0 0 Z " fill="#337EC5" transform="translate(494.625,258.3125)"/>
<path d="M0 0 C0.96832764 0.00870117 1.93665527 0.01740234 2.93432617 0.02636719 C28.73636832 0.49940786 54.54293027 3.07503643 80.20562744 5.63214111 C96.07242442 7.20800569 111.95072641 8.35484931 127.86474609 9.3359375 C137.22635853 9.91653801 146.57004825 10.59051372 155.91333008 11.41943359 C157.48699215 11.55770821 157.48699215 11.55770821 159.09244537 11.69877625 C161.64505126 11.92320813 164.19756536 12.14863037 166.75 12.375 C166.75238835 12.98146457 166.75477671 13.58792913 166.75723743 14.21277142 C166.81657162 29.02182849 166.89223804 43.83073593 166.98571491 58.63961315 C167.03053403 65.80131234 167.06997998 72.96296334 167.09643555 80.12475586 C167.11952886 86.37256121 167.15305134 92.62021226 167.19870156 98.86789495 C167.22248252 102.17096277 167.2397529 105.47384909 167.24761391 108.77699852 C167.2573124 112.47940796 167.28544115 116.18127165 167.31762695 119.88354492 C167.31619186 120.95889496 167.31475677 122.034245 167.3132782 123.1421814 C167.46228204 135.3538539 169.46911317 148.42519559 178.5625 157.3125 C179.284375 157.993125 180.00625 158.67375 180.75 159.375 C180.75 160.035 180.75 160.695 180.75 161.375 C182.08072668 162.04685469 183.4149317 162.71181461 184.75 163.375 C185.72710937 163.86097656 186.70421875 164.34695313 187.7109375 164.84765625 C196.27679118 168.83656065 203.18816656 170.34593668 212.75 170.375 C212.75 174.005 212.75 177.635 212.75 181.375 C240.47 181.375 268.19 181.375 296.75 181.375 C296.75 178.075 296.75 174.775 296.75 171.375 C306.32 171.375 315.89 171.375 325.75 171.375 C325.8325 175.54125 325.915 179.7075 326 184 C326.03641602 185.30275879 326.07283203 186.60551758 326.11035156 187.94775391 C326.21240999 198.57993763 326.21240999 198.57993763 321.75 203.375 C317.68598015 206.95520796 315.39916117 208.49982953 310.02111816 208.49957275 C308.52412384 208.50341728 308.52412384 208.50341728 306.99688721 208.50733948 C305.89769958 208.50523972 304.79851196 208.50313995 303.66601562 208.50097656 C301.93402924 208.50377876 301.93402924 208.50377876 300.16705322 208.50663757 C297.65159835 208.51064985 295.13613981 208.51271717 292.62068176 208.51309967 C288.6355473 208.51563819 284.65050447 208.52708409 280.66540527 208.54266357 C279.99246005 208.54523643 279.31951482 208.54780928 278.62617731 208.5504601 C277.24973036 208.55572709 275.87328348 208.56101257 274.49683666 208.56631613 C265.21923143 208.60138638 255.94173952 208.62798572 246.6640625 208.62548828 C240.40706949 208.62389451 234.15039117 208.64005996 227.8934989 208.67619491 C224.58536432 208.69458082 221.2778689 208.70130431 217.96968079 208.69171906 C214.26901531 208.68207046 210.56968569 208.70333551 206.86914062 208.73144531 C205.78614685 208.72124863 204.70315308 208.71105194 203.58734131 208.70054626 C198.30757215 208.77215852 194.66240097 209.16319057 190.08630371 211.87478638 C182.99026078 215.81447633 175.13292926 215.07320787 167.25 215.02197266 C165.49136452 215.02875767 163.73273615 215.03766575 161.97412109 215.04852295 C157.2219483 215.07121782 152.47032136 215.06252071 147.71813965 215.04662752 C142.73134961 215.03391748 137.74460449 215.04572277 132.7578125 215.05355835 C124.38533182 215.06264008 116.01307209 215.05070579 107.640625 215.02685547 C97.97812187 214.99964707 88.31614636 215.00846227 78.65365601 215.0359875 C70.3390961 215.05871967 62.02469449 215.06185858 53.71011353 215.04879415 C48.75229247 215.04102221 43.79471895 215.03989572 38.83691406 215.05647659 C34.17449397 215.07098202 29.51275029 215.06078934 24.85040283 215.03200531 C23.14529541 215.02542681 21.44013049 215.02723641 19.73504639 215.03831863 C8.97046228 215.10180182 0.62380681 214.2926057 -7.9375 207.125 C-8.700625 206.2175 -9.46375 205.31 -10.25 204.375 C-10.80300781 203.72660156 -11.35601562 203.07820312 -11.92578125 202.41015625 C-21.85607174 190.31093722 -23.90354511 178.36204865 -25.65234375 163.19140625 C-25.77453278 162.15080048 -25.8967218 161.1101947 -26.02261353 160.03805542 C-26.41560314 156.67172867 -26.80215025 153.30470932 -27.1875 149.9375 C-27.3213913 148.77751495 -27.45528259 147.61752991 -27.5932312 146.4223938 C-29.30665837 131.53509914 -30.84361479 116.65657869 -31.9708252 101.71365356 C-33.08132835 87.05104884 -34.79470573 72.47342768 -36.62524414 57.88452148 C-38.80047533 40.3010889 -39.73754627 27.68483745 -28.52734375 12.92578125 C-20.86091822 4.33885866 -11.42619081 -0.18125102 0 0 Z " fill="#424C57" transform="translate(94.25,297.625)"/>
<path d="M0 0 C0.91088379 -0.00950684 1.82176758 -0.01901367 2.76025391 -0.02880859 C22.41702799 0.06742584 41.85845933 7.50034993 55.89453125 21.27734375 C81.34289683 47.28763377 78.75 77.97157489 78.75 113.25 C41.46 113.25 4.17 113.25 -34.25 113.25 C-32.04580647 127.57725792 -29.2221231 139.9625987 -17.56640625 149.4296875 C-4.18691513 158.37409072 13.69517489 158.33693487 29.22265625 155.59765625 C37.27991083 153.58980564 44.78518877 150.23591482 52.2890625 146.73828125 C55.1925759 145.48970495 57.64231982 144.69650577 60.75 144.25 C63.92588896 149.39691171 66.41875431 154.75978115 68.9375 160.25 C69.40091797 161.23484375 69.86433594 162.2196875 70.34179688 163.234375 C70.77943359 164.18828125 71.21707031 165.1421875 71.66796875 166.125 C72.06781982 166.98867187 72.4676709 167.85234375 72.87963867 168.7421875 C73.80426669 171.40636112 73.91707112 173.45148036 73.75 176.25 C61.9566866 183.31164966 50.0902721 189.10268923 36.875 193.0625 C36.18559326 193.26963623 35.49618652 193.47677246 34.78588867 193.69018555 C34.11662354 193.88136963 33.4473584 194.07255371 32.7578125 194.26953125 C32.17660645 194.43557861 31.59540039 194.60162598 30.99658203 194.77270508 C24.99836563 196.04704903 18.99238758 196.42124552 12.875 196.48828125 C12.14740479 196.496353 11.41980957 196.50442474 10.67016602 196.51274109 C9.13739323 196.52647631 7.60459121 196.53724491 6.07177734 196.54516602 C4.53815432 196.55661578 3.0045689 196.57695501 1.47119141 196.60668945 C-21.48019109 197.04968034 -41.87691159 190.5638679 -58.84375 174.6171875 C-59.6378125 173.83601562 -60.431875 173.05484375 -61.25 172.25 C-62.0234375 171.48945313 -62.796875 170.72890625 -63.59375 169.9453125 C-81.42038325 151.32502777 -87.43820766 126.66533814 -87.43530273 101.61328125 C-87.43748126 99.51801983 -87.45567417 97.42329327 -87.47460938 95.328125 C-87.52364034 83.88196884 -86.3738181 72.80689707 -83.0625 61.8125 C-82.84819336 61.10005127 -82.63388672 60.38760254 -82.41308594 59.65356445 C-76.15732249 39.78687013 -62.47885801 20.4841409 -44.28515625 9.77734375 C-29.90510805 2.5410518 -16.06359689 0.13697433 0 0 Z " fill="#FEFEFD" transform="translate(264.25,58.75)"/>
<path d="M0 0 C1.35158203 -0.00966797 1.35158203 -0.00966797 2.73046875 -0.01953125 C4.11685547 0.00947266 4.11685547 0.00947266 5.53125 0.0390625 C6.45550781 0.01972656 7.37976563 0.00039063 8.33203125 -0.01953125 C9.23308594 -0.01308594 10.13414063 -0.00664063 11.0625 0 C11.87267578 0.00563965 12.68285156 0.0112793 13.51757812 0.01708984 C17.16811885 0.95667152 19.73980328 2.72046413 22.03125 5.6640625 C22.90006526 8.78787483 22.81653225 11.80932022 22.7527771 15.0349884 C22.75790365 15.98256112 22.7630302 16.93013384 22.7683121 17.90642089 C22.77820101 21.08389404 22.74518627 24.25946938 22.71240234 27.43676758 C22.71071005 29.71333776 22.71165959 31.98991122 22.71505737 34.26647949 C22.71678116 40.45015657 22.68146796 46.63313747 22.63961363 52.81665254 C22.60214411 59.27752813 22.59858423 65.73841911 22.59146118 72.1993866 C22.57492229 83.04476427 22.53742761 93.88985602 22.48388672 104.73510742 C22.42880045 115.9050163 22.38633593 127.07485573 22.36083984 138.24487305 C22.3592635 138.93355541 22.35768716 139.62223777 22.35606305 140.33178929 C22.34823275 143.78675614 22.34065052 147.24172348 22.33319163 150.69669116 C22.27100575 179.35265437 22.16489313 208.00834843 22.03125 236.6640625 C20.94730957 236.71449707 19.86336914 236.76493164 18.74658203 236.81689453 C17.30238752 236.89315176 15.85821544 236.96983453 14.4140625 237.046875 C13.7022583 237.07885986 12.9904541 237.11084473 12.25708008 237.14379883 C3.60814597 237.62512218 -3.31150308 240.82165521 -10.96875 244.6640625 C-11.10559329 214.30205252 -11.21179123 183.94007437 -11.27514198 153.57782655 C-11.28264632 149.99418529 -11.29041224 146.41054464 -11.29833984 142.8269043 C-11.29991371 142.11345892 -11.30148757 141.40001354 -11.30310912 140.66494861 C-11.32922487 129.10931537 -11.37653652 117.55386103 -11.43166678 105.99833397 C-11.4877544 94.14336089 -11.52109809 82.28848158 -11.53328097 70.43338126 C-11.54077869 63.77360063 -11.55957036 57.11417619 -11.60313034 50.45453835 C-11.64377898 44.18938929 -11.65643438 37.9248143 -11.64739609 31.6595459 C-11.64905017 29.35727 -11.66103045 27.05497541 -11.68398285 24.75281334 C-11.71374756 21.61406484 -11.70669265 18.47749612 -11.6902771 15.33869934 C-11.70775415 14.42332691 -11.7252312 13.50795447 -11.74323785 12.56484348 C-11.65808211 6.55941562 -11.65808211 6.55941562 -9.67311215 3.98119676 C-6.58248418 1.30008291 -4.07626372 0.02837495 0 0 Z " fill="#FEFEFE" transform="translate(82.96875,60.3359375)"/>
<path d="M0 0 C9.95054159 4.70389239 14.15144888 15.0705226 17.68847656 24.91650391 C18.56826364 27.49950175 19.4144569 30.09205283 20.24609375 32.69091797 C21.56077968 36.78022736 23.09219176 40.6329549 24.91821289 44.51416016 C26.18566591 47.42664191 27.23479296 50.38116985 28.28515625 53.37890625 C30.89657169 60.75239899 33.64844477 68.06676471 36.4375 75.375 C36.92413625 76.65486173 37.41054339 77.93481059 37.89672852 79.21484375 C39.89354279 84.47119138 41.89417819 89.72603441 43.90625 94.9765625 C46.93349112 102.91072235 49.59358306 110.85520421 52 119 C43.42 119 34.84 119 26 119 C25.01 115.761875 24.02 112.52375 23 109.1875 C22.68675781 108.17067139 22.37351562 107.15384277 22.05078125 106.10620117 C21.80714844 105.30158447 21.56351562 104.49696777 21.3125 103.66796875 C21.06113281 102.84578857 20.80976563 102.0236084 20.55078125 101.17651367 C20 99 20 99 20 96 C-5.245 96.495 -5.245 96.495 -31 97 C-32.65 102.28 -34.3 107.56 -36 113 C-36.66 114.98 -37.32 116.96 -38 119 C-46.25 119 -54.5 119 -63 119 C-61.18547416 112.95158053 -59.50757059 107.49392693 -57.125 101.75 C-54.47183215 95.25620391 -52.06850558 88.69913157 -49.73779297 82.08203125 C-45.30116252 69.56198343 -40.70233211 57.10271353 -35.93481445 44.70507812 C-33.98187011 39.61753572 -32.0948258 34.51185488 -30.25585938 29.38208008 C-19.03047283 -1.77085658 -19.03047283 -1.77085658 0 0 Z " fill="#FBFCFD" transform="translate(392,298)"/>
<path d="M0 0 C5.94 0 11.88 0 18 0 C18 3.63 18 7.26 18 11 C30.54 11 43.08 11 56 11 C56 16.94 56 22.88 56 29 C53.03 29 50.06 29 47 29 C47.061875 30.134375 47.12375 31.26875 47.1875 32.4375 C47.16139323 37.42389332 45.82815329 41.39857267 44 46 C43.58621094 47.07636719 43.17242187 48.15273438 42.74609375 49.26171875 C38.21904417 60.47449277 32.05042055 69.9373697 24.15234375 79.0625 C22.81890946 80.90509349 22.81890946 80.90509349 23.07421875 82.95703125 C28.8937392 95.79926413 44.9534041 104.82584731 56 113 C57.33413205 113.99893415 58.66780131 114.99848893 60 116 C59.34097701 119.57040303 57.83770842 122.17732255 55.9375 125.25 C55.38964844 126.14203125 54.84179688 127.0340625 54.27734375 127.953125 C53.64505859 128.96632813 53.64505859 128.96632813 53 130 C37.77468803 124.58777061 20.68636573 108.69247924 11 96 C6.95462856 97.66920666 3.97597678 100.50564558 0.75 103.375 C-4.59770982 108.0445478 -10.07860431 112.47906027 -15.75 116.75 C-16.44125977 117.27513184 -17.13251953 117.80026367 -17.84472656 118.34130859 C-22.75161963 122 -22.75161963 122 -25 122 C-26.9453125 119.69921875 -26.9453125 119.69921875 -29.125 116.6875 C-30.21167969 115.20830078 -30.21167969 115.20830078 -31.3203125 113.69921875 C-33 111 -33 111 -33 108 C-30.9453125 106.23828125 -30.9453125 106.23828125 -28.125 104.3125 C-19.56732533 98.3078832 -11.66160785 91.83492381 -4.03125 84.6875 C-2 83 -2 83 0 83 C-0.3403125 82.3915625 -0.680625 81.783125 -1.03125 81.15625 C-2.71189337 78.11678858 -4.36123679 75.06226515 -6 72 C-6.32097656 71.40026367 -6.64195312 70.80052734 -6.97265625 70.18261719 C-11.0184434 62.55511848 -14.62538158 54.87614446 -17.5625 46.75 C-17.82611328 46.03505371 -18.08972656 45.32010742 -18.36132812 44.58349609 C-19.29540093 41.88542292 -20.00977522 39.49527777 -19.953125 36.625 C-18.51315607 34.169971 -16.88857404 33.96184967 -14.1875 33.25 C-13.31480469 33.00765625 -12.44210938 32.7653125 -11.54296875 32.515625 C-9 32 -9 32 -5 32 C-3.24487338 35.84456307 -1.81601439 39.54277624 -0.71875 43.625 C0.92331696 49.18441623 3.40471475 54.05961629 6.1875 59.125 C6.88262695 60.41664063 6.88262695 60.41664063 7.59179688 61.734375 C8.71975446 63.82749217 9.85580213 65.91573044 11 68 C22.04869401 57.54056967 27.76331614 43.56507739 31 29 C8.56 29 -13.88 29 -37 29 C-37 23.06 -37 17.12 -37 11 C-24.79 11 -12.58 11 0 11 C0 7.37 0 3.74 0 0 Z " fill="#F9FAFA" transform="translate(170,346)"/>
<path d="M0 0 C9.57 0 19.14 0 29 0 C29.0825 4.16625 29.165 8.3325 29.25 12.625 C29.28641602 13.92775879 29.32283203 15.23051758 29.36035156 16.57275391 C29.46240999 27.20493763 29.46240999 27.20493763 25 32 C20.90493516 35.60755712 18.62167223 37.12590989 13.2038269 37.12025452 C12.19137909 37.12162918 11.17893127 37.12300385 10.13580322 37.12442017 C9.02090515 37.12082489 7.90600708 37.11722961 6.75732422 37.11352539 C5.5866037 37.11367142 4.41588318 37.11381744 3.20968628 37.1139679 C-0.0049861 37.1133896 -3.21961523 37.10836593 -6.43427896 37.10139394 C-9.79219278 37.09515295 -13.1501074 37.09455601 -16.50802612 37.09336853 C-22.86867548 37.09025742 -29.22930769 37.08204698 -35.58994949 37.07201904 C-42.83048451 37.06085109 -50.07102034 37.05534573 -57.31156182 37.05032361 C-72.20771744 37.0398642 -87.10385701 37.022269 -102 37 C-101.20924072 36.21157715 -100.41848145 35.4231543 -99.60375977 34.61083984 C-91.94331554 26.92956553 -87.69636781 20.78547125 -85 10 C-56.95 10 -28.9 10 0 10 C0 6.7 0 3.4 0 0 Z " fill="#85B818" transform="translate(391,469)"/>
<path d="M0 0 C0.12060791 1.40354736 0.12060791 1.40354736 0.24365234 2.83544922 C2.45261412 29.54357546 2.45261412 29.54357546 5.56640625 56.15625 C5.65978271 56.83534424 5.75315918 57.51443848 5.84936523 58.21411133 C6.1034295 60.03306746 6.36765165 61.85059709 6.6328125 63.66796875 C7.01526184 67.13849312 7.06205995 70.51134404 7 74 C-5.49178412 74.90666175 -15.32996715 72.10002737 -25.03125 64.015625 C-28.5103829 60.45365561 -30.80215905 56.43794808 -33 52 C-33.3403125 51.35289062 -33.680625 50.70578125 -34.03125 50.0390625 C-37.71578242 41.9535608 -37.03966008 31.72710882 -34.1640625 23.4765625 C-28.59360486 11.62532041 -20.26121119 5.4796981 -8.45703125 0.6640625 C-5.56602934 -0.11728937 -2.98319387 -0.04349798 0 0 Z " fill="#FCFDFC" transform="translate(64,405)"/>
<path d="M0 0 C1.051875 0.66 2.10375 1.32 3.1875 2 C8.71637978 6.94201545 11.5890842 14.94542101 13 22 C13 26.62 13 31.24 13 36 C-7.79 36 -28.58 36 -50 36 C-50 23.63237494 -45.78064478 10.98020489 -37 2 C-26.55591697 -5.71319506 -11.21145512 -7.25730751 0 0 Z " fill="#88BA1C" transform="translate(280,103)"/>
<path d="M0 0 C2.28792418 3.43188628 3.7659014 7.0125734 5.3125 10.8125 C5.62300293 11.57079102 5.93350586 12.32908203 6.25341797 13.11035156 C8.6019303 18.89857969 10.7498744 24.73219677 12.80078125 30.6328125 C14.43619569 35.22475793 16.25148351 39.74058393 18.08203125 44.2578125 C19 47 19 47 19 51 C6.13 51 -6.74 51 -20 51 C-17.64970903 43.94912708 -15.38662428 37.44209576 -12.4921875 30.69140625 C-10.09009373 24.74905386 -7.97559289 18.70050624 -5.85449219 12.65283203 C-4.25202398 8.15054623 -2.71855843 3.97652491 0 0 Z " fill="#3781C7" transform="translate(386,321)"/>
<path d="M0 0 C27.72 0 55.44 0 84 0 C84 3.63 84 7.26 84 11 C56.28 11 28.56 11 0 11 C0 7.37 0 3.74 0 0 Z " fill="#F2F7F7" transform="translate(307,468)"/>
</svg>
